<svg xmlns="http://www.w3.org/2000/svg" width="267.183" height="107.491" viewBox="0 0 267.183 107.491"><defs><style>.a,.b{fill:#f1a42d;}.b{font-size:19px;font-family:Poppins-Regular, Poppins;}</style></defs><g transform="translate(-1245.714 -4208)"><g transform="translate(1245.714 4238.858)"><path class="a" d="M129.893,78.032a4.528,4.528,0,0,0-4.839-.2,19.38,19.38,0,0,0-5.794,4.312,52.056,52.056,0,0,0-5.958,7.439,79.961,79.961,0,0,0-5.4,9.25,7.073,7.073,0,0,0-4.674-.2,15.869,15.869,0,0,0-4.9,2.436,29.354,29.354,0,0,0-4.707,4.246,34.849,34.849,0,0,0-3.983,5.366,36.762,36.762,0,0,0-3.127,6.09,4.466,4.466,0,0,1-2.4,1.843,2.829,2.829,0,0,1-2.5-.329,45.9,45.9,0,0,0,2.8-6.485c.691-2.041.757-3.621.2-4.707a6.014,6.014,0,0,0,.593-4.213,4.049,4.049,0,0,0-2.074-2.4,7.263,7.263,0,0,0-3.687-.658,12.151,12.151,0,0,0-4.246,1.02,23.459,23.459,0,0,0-6.254,4.213,28.872,28.872,0,0,0-6.09,8.526c-.527,1.02-.955,2.008-1.35,3a4.728,4.728,0,0,1-2.535,2.041,2.829,2.829,0,0,1-2.5-.329,45.9,45.9,0,0,0,2.8-6.485c.691-2.041.757-3.621.2-4.707a6.014,6.014,0,0,0,.593-4.213,4.049,4.049,0,0,0-2.074-2.4,7.263,7.263,0,0,0-3.687-.658,12.151,12.151,0,0,0-4.246,1.02,23.459,23.459,0,0,0-6.254,4.213,28.872,28.872,0,0,0-6.09,8.526c-.527,1.02-.955,2.008-1.35,3-.428.527-1.053,1.251-1.843,2.14q-1.234,1.383-2.765,2.963c-.988,1.053-2.041,2.14-3.127,3.193-1.086,1.086-2.074,2.041-3,2.93-.922.856-1.679,1.547-2.3,2.041s-.988.691-1.086.658c-.066-.066.263-.625.922-1.745.691-1.119,1.514-2.5,2.568-4.148,1.02-1.646,2.173-3.489,3.456-5.464,1.284-2.008,2.5-3.95,3.687-5.794,1.185-1.876,2.238-3.555,3.16-5.1s1.58-2.666,1.942-3.358c.263-.494.132-.889-.461-1.218a5.016,5.016,0,0,0-2.205-.593,10.293,10.293,0,0,0-2.8.2,4.07,4.07,0,0,0-2.271,1.284,15.892,15.892,0,0,0-1.547,3c-.593,1.415-1.251,2.963-1.942,4.707-1.086,1.745-2.271,3.588-3.555,5.6a41.669,41.669,0,0,1-4.082,5.366,15.222,15.222,0,0,1-4.345,3.423,3.988,3.988,0,0,1-4.213-.329c-1.251-.856-2.008-2.535-2.3-5.036a27.18,27.18,0,0,1,.593-8.69,46.43,46.43,0,0,1,3.654-10.4,40.091,40.091,0,0,1,6.913-10.073,13.753,13.753,0,0,0,4.246,4.246,13.42,13.42,0,0,0,5.53,1.942,15.559,15.559,0,0,0,11.719-3.522c3.292-2.7,5.5-5.431,6.584-8.2s1.152-5.1.165-7.044-2.93-3.259-5.826-3.95c-2.93-.691-6.748-.263-11.455,1.251a34.885,34.885,0,0,0-8.921,4.477,13.549,13.549,0,0,1,1.942-5.168c.922-1.383,1.745-2.107,2.5-2.238-.4-1.843-1.218-3-2.5-3.489a4.845,4.845,0,0,0-3.884.165,7.488,7.488,0,0,0-1.613,1.284A7.921,7.921,0,0,0,16.2,74.642a12.943,12.943,0,0,0-.757,4.411A18.135,18.135,0,0,0,16.59,85.34a50.075,50.075,0,0,0-7.209,8.723,58.685,58.685,0,0,0-5.267,9.908,53.234,53.234,0,0,0-3.094,9.974A35.135,35.135,0,0,0,.3,122.965a16.875,16.875,0,0,0,1.778,6.979,7.367,7.367,0,0,0,4.477,3.786,8.223,8.223,0,0,0,4.181.2,12,12,0,0,0,4.049-1.712,21.232,21.232,0,0,0,3.884-3.193,49.856,49.856,0,0,0,3.786-4.312c-1.679,2.8-3.16,5.5-4.477,8.065a75.08,75.08,0,0,0-3.094,6.847,26.124,26.124,0,0,0-1.415,4.9c-.2,1.284,0,1.975.527,2.14.691.263,1.778-.263,3.193-1.58a62.063,62.063,0,0,0,6.123-7.011c1.679-2.107,3.423-4.279,5.2-6.485s3.423-4.312,4.9-6.254c.494-.658.955-1.251,1.415-1.843a13.352,13.352,0,0,0,.066,2.008,8.106,8.106,0,0,0,1.514,3.884,5.58,5.58,0,0,0,3.193,2.041,7.468,7.468,0,0,0,3.95-.3,15.052,15.052,0,0,0,4.016-2.074,25.2,25.2,0,0,0,3.786-3.358,32.724,32.724,0,0,0,3.193-4.082,6.775,6.775,0,0,0,2.5.362,9.188,9.188,0,0,0,2.765-.56c.132-.066.263-.1.4-.165a14.722,14.722,0,0,0-.165,4.279,8.106,8.106,0,0,0,1.514,3.884,5.58,5.58,0,0,0,3.193,2.041,7.468,7.468,0,0,0,3.95-.3,15.052,15.052,0,0,0,4.016-2.074A25.2,25.2,0,0,0,76.5,125.73a32.723,32.723,0,0,0,3.193-4.082,6.774,6.774,0,0,0,2.5.362,9.189,9.189,0,0,0,2.765-.56c.033,0,.033,0,.033-.033-.23.889-.428,1.712-.593,2.535a15.232,15.232,0,0,0-.2,5.1,3.272,3.272,0,0,0,1.613,2.732,3.524,3.524,0,0,0,2.9-.362,19.37,19.37,0,0,0,3.72-2.5,53.857,53.857,0,0,0,4.049-3.851c1.383-1.448,2.7-2.93,3.95-4.378a22.77,22.77,0,0,0-.23,7.8c.362,2.008,1.284,3,2.666,3a9.18,9.18,0,0,0,4.674-1.712,44.873,44.873,0,0,0,5.4-4.016,65.767,65.767,0,0,0,4.839-4.641,23.916,23.916,0,0,0,2.963-3.621,4.492,4.492,0,0,0,.823-2.041c0-.494-.165-.79-.527-.889a1.958,1.958,0,0,0-1.383.3,5.926,5.926,0,0,0-1.81,1.679,18.638,18.638,0,0,1-2.4,2.469,25.347,25.347,0,0,1-2.9,2.238,19.966,19.966,0,0,1-2.732,1.547,3.886,3.886,0,0,1-1.81.494q-1.037-.148-1.58-2.271a14.7,14.7,0,0,1,.362-6.254c3.72-3.884,7.308-7.8,10.7-11.752a124.186,124.186,0,0,0,8.559-10.962,36.679,36.679,0,0,0,4.674-8.756C131.506,80.731,131.242,78.987,129.893,78.032Zm-99.51,5.826a10.373,10.373,0,0,1,5.431-1.185,4.9,4.9,0,0,1,3.325,1.58,3.966,3.966,0,0,1,.724,3.292,6.713,6.713,0,0,1-2.337,3.786,10.013,10.013,0,0,1-3.851,2.238,9.594,9.594,0,0,1-4.082.3,9.766,9.766,0,0,1-3.851-1.58,11.1,11.1,0,0,1-3.127-3.292A34.6,34.6,0,0,1,30.383,83.859ZM55.63,106.276a8.422,8.422,0,0,0-2.469,2.568,15.789,15.789,0,0,0-1.876,3.72,11.3,11.3,0,0,0-.658,4.016A5.318,5.318,0,0,0,51.878,120a12.331,12.331,0,0,1-3.654,3.028,16.954,16.954,0,0,1-2.271.988,3.377,3.377,0,0,1-1.942.132,2.1,2.1,0,0,1-1.514-1.415,7.7,7.7,0,0,1-.4-2.93,14.314,14.314,0,0,1,.658-3.818,28.4,28.4,0,0,1,1.58-4.181,20.16,20.16,0,0,1,3.687-5.267,18.013,18.013,0,0,1,4.411-3.423,4.015,4.015,0,0,1,2.337-.494,2.728,2.728,0,0,1,1.58.724,1.5,1.5,0,0,1,.4,1.383A2.263,2.263,0,0,1,55.63,106.276Zm25.149,0a8.422,8.422,0,0,0-2.469,2.568,15.789,15.789,0,0,0-1.876,3.72,11.3,11.3,0,0,0-.658,4.016A5.318,5.318,0,0,0,77.027,120a12.331,12.331,0,0,1-3.654,3.028,16.954,16.954,0,0,1-2.271.988,3.377,3.377,0,0,1-1.942.132,2.1,2.1,0,0,1-1.514-1.415,7.7,7.7,0,0,1-.4-2.93,14.314,14.314,0,0,1,.658-3.818,28.4,28.4,0,0,1,1.58-4.181,20.16,20.16,0,0,1,3.687-5.267,18.013,18.013,0,0,1,4.411-3.423,4.015,4.015,0,0,1,2.337-.494,2.728,2.728,0,0,1,1.58.724,1.5,1.5,0,0,1,.4,1.383C81.9,105.255,81.5,105.782,80.78,106.276Zm25.314-3.917c-.922,2.205-1.745,4.411-2.5,6.518-.757,2.14-1.415,4.246-1.942,6.287-.988,1.152-1.975,2.238-2.963,3.292a29.261,29.261,0,0,1-2.831,2.666,11.763,11.763,0,0,1-2.4,1.613,1.975,1.975,0,0,1-1.613.3c-.428-.23-.593-.79-.527-1.712A15.136,15.136,0,0,1,92,118.027a28.687,28.687,0,0,1,1.514-3.983,27.483,27.483,0,0,1,2.074-3.786,28.622,28.622,0,0,1,6.287-7.11c1.909-1.383,3.489-1.909,4.674-1.58Zm16.689-13.2A45.651,45.651,0,0,1,119,95.577c-1.58,2.271-3.325,4.641-5.3,7.044-1.975,2.436-3.95,4.806-5.892,7.143.329-1.086.691-2.173,1.086-3.292a25.72,25.72,0,0,1,1.514-3.456c1.152-2.535,2.3-4.938,3.522-7.176a65.081,65.081,0,0,1,3.621-5.925,28.12,28.12,0,0,1,3.456-4.181,6.628,6.628,0,0,1,3.127-1.942A12.026,12.026,0,0,1,122.783,89.158Z" transform="translate(-0.245 -70.099)"/><g transform="translate(134.435 4.741)"><path class="a" d="M443.882,92.894a1.936,1.936,0,0,0-.066-2.5,51.772,51.772,0,0,1,6.584-.56,25.946,25.946,0,0,1,5.892.461,16.148,16.148,0,0,1,4.872,1.745,10.872,10.872,0,0,1,3.522,3.16,7.3,7.3,0,0,0-2.666-5.991,17.9,17.9,0,0,0-7.275-3.522A40.311,40.311,0,0,0,444.508,84.5a64.211,64.211,0,0,0-11.455,1.053,59.947,59.947,0,0,0-10.863,3.028,30.535,30.535,0,0,0-8.592,4.839,13.744,13.744,0,0,0-4.576,6.518,10.164,10.164,0,0,0,1.152,8c-.066-1.086.56-2.3,1.876-3.687a25.591,25.591,0,0,1,5.3-4.148,64.69,64.69,0,0,1,7.736-4.016,86.7,86.7,0,0,1,9.184-3.423c-1.514,2.436-3.226,5.3-5.1,8.592a117.255,117.255,0,0,0-5.6,11.159c-1.843,4.148-3.555,8.69-5.2,13.661a111.385,111.385,0,0,0-3.884,16.064c-.23,1.284-.1,2.14.329,2.5a1.466,1.466,0,0,0,1.712,0,8.078,8.078,0,0,0,2.238-2.107,12.56,12.56,0,0,0,1.909-3.818,85.807,85.807,0,0,1,4.049-11.06c1.679-3.818,3.555-7.67,5.6-11.521s4.246-7.736,6.583-11.653C439.142,100.6,441.512,96.745,443.882,92.894Z" transform="translate(-408.641 -84.5)"/><path class="a" d="M535.868,124.985a6.387,6.387,0,0,0-3.358,1.975,6.936,6.936,0,0,0-1.876,3.456,3.111,3.111,0,0,0,.724,2.9,3.257,3.257,0,0,0,2.963.691,6.388,6.388,0,0,0,3.358-1.975,6.936,6.936,0,0,0,1.876-3.456,2.891,2.891,0,0,0-3.687-3.588Z" transform="translate(-490.422 -111.588)"/><path class="a" d="M590.136,163.711a1.9,1.9,0,0,0-1.449.23,5.767,5.767,0,0,0-1.909,1.679q-1.234,1.629-2.271,2.765c-.691.757-1.415,1.514-2.107,2.271a26.921,26.921,0,0,0,1.218-9.25,29.211,29.211,0,0,0-2.107-9.908,12.279,12.279,0,0,0,2.271-5.267c.165-1.514-.231-2.469-1.152-2.831a3.889,3.889,0,0,0-3.325.461,11.108,11.108,0,0,0-3.358,2.9,13.142,13.142,0,0,0-2.238,4.181,6.53,6.53,0,0,0,.066,4.411c-1.35,1.514-2.8,3.16-4.312,4.9-1.152,1.317-2.3,2.7-3.423,4.049a9.656,9.656,0,0,0-1.119,1.317h0a6.685,6.685,0,0,0-.428.593,32.47,32.47,0,0,1-2.3,2.568,27.055,27.055,0,0,1-4.345,3.522,17.73,17.73,0,0,1-5,2.337,5.929,5.929,0,0,1-4.707-.362,2.688,2.688,0,0,1-1.35-1.58,8.114,8.114,0,0,1-.362-2.469,18.028,18.028,0,0,1,.23-2.9c.165-.988.329-1.942.494-2.8.593.1,1.317.23,2.14.329a17.871,17.871,0,0,0,2.732.132,21.078,21.078,0,0,0,3.094-.329,12.222,12.222,0,0,0,3.16-1.02,17.745,17.745,0,0,0,5.4-3.818,10.093,10.093,0,0,0,2.436-4.246,6.494,6.494,0,0,0-.2-4.049,6.678,6.678,0,0,0-2.436-3.127,7.719,7.719,0,0,0-4.938-1.613,11.674,11.674,0,0,0-5.168,1.448,20,20,0,0,0-4.9,3.851,30.642,30.642,0,0,0-4.148,5.464,33.034,33.034,0,0,0-3.028,6.682c-.165.461-.3.955-.428,1.415a19.279,19.279,0,0,1-2.3,2.37c-.922.823-1.81,1.514-2.666,2.14a8.85,8.85,0,0,1-2.337,1.284c-.691.23-1.152.2-1.383-.132a2.535,2.535,0,0,1-.165-2.238,15.386,15.386,0,0,1,1.35-3.16,40.159,40.159,0,0,1,2.271-3.687c.889-1.284,1.777-2.6,2.666-3.884s1.712-2.568,2.469-3.786a21.271,21.271,0,0,0,1.712-3.292,2.968,2.968,0,0,0,.165-1.876,1.786,1.786,0,0,0-.988-1.086,3.6,3.6,0,0,0-1.745-.329,5.365,5.365,0,0,0-2.074.527,25.075,25.075,0,0,0-4.707,3.127,73.905,73.905,0,0,0-5.53,5.036,79.847,79.847,0,0,0-5.563,6.254,75.444,75.444,0,0,0-4.839,6.682,30.97,30.97,0,0,1,2.666-5.168c1.152-1.745,2.3-3.423,3.522-5.036,1.218-1.58,2.37-3.061,3.489-4.378s2.008-2.436,2.732-3.292a1.981,1.981,0,0,0,.461-1.712,3.013,3.013,0,0,0-.922-1.547,4.123,4.123,0,0,0-1.778-.889,3.133,3.133,0,0,0-2.041.23,23.028,23.028,0,0,0-4.345,2.831,59.124,59.124,0,0,0-4.641,4.181c-1.547,1.547-3.028,3.127-4.477,4.707s-2.7,3.028-3.818,4.345c-1.119,1.284-1.975,2.337-2.633,3.127s-.988,1.119-.988,1.02a13.658,13.658,0,0,1,.889-2.4,15.91,15.91,0,0,1,1.613-2.9c.494-.494,1.185-1.251,2.074-2.3s1.81-2.206,2.765-3.423,1.81-2.4,2.6-3.522a10.017,10.017,0,0,0,1.416-2.6,3.82,3.82,0,0,0,.165-1.547.81.81,0,0,0-.691-.757,3.411,3.411,0,0,0-1.712.329,16.594,16.594,0,0,0-2.9,1.745,25.821,25.821,0,0,0-4.839,4.543,48.284,48.284,0,0,0-6.584,10.27l-.033.033a19.934,19.934,0,0,1-2.337,2.4,24.955,24.955,0,0,1-2.732,2.074,16.1,16.1,0,0,1-2.469,1.383,2.848,2.848,0,0,1-1.712.329,1.485,1.485,0,0,1-.922-1.284,7.7,7.7,0,0,1,.033-2.6,18.484,18.484,0,0,1,.922-3.423,28.7,28.7,0,0,1,1.679-3.72,19.533,19.533,0,0,1,1.58-2.5c.625-.856,1.284-1.712,1.942-2.5.691-.823,1.35-1.547,2.041-2.238s1.284-1.251,1.811-1.745q.494-.4,0-.988a3.633,3.633,0,0,0-1.383-.922,6.178,6.178,0,0,0-1.942-.395,2.435,2.435,0,0,0-1.778.593,37.224,37.224,0,0,0-4.938,6.123,47.28,47.28,0,0,0-3.687,6.781,41.8,41.8,0,0,0-2.3,6.616,29.338,29.338,0,0,0-.922,5.728,10.114,10.114,0,0,0,.461,4.016,2.035,2.035,0,0,0,1.942,1.514,9.261,9.261,0,0,0,4.74-1.745,45.364,45.364,0,0,0,5.366-4.082c.658-.593,1.251-1.152,1.876-1.745a12.844,12.844,0,0,0-.362,4.444,2.37,2.37,0,0,0,1.613,2.238c.428.1,1.152-.3,2.14-1.218a23.975,23.975,0,0,0,3.193-3.819c1.251-1.745,2.634-3.522,4.181-5.366s3.094-3.555,4.641-5.2c1.547-1.613,3.028-3.028,4.411-4.246a17.987,17.987,0,0,1,3.654-2.568,9.387,9.387,0,0,0-1.58,1.547,32.428,32.428,0,0,0-2.205,2.765,36.274,36.274,0,0,0-2.3,3.621,39.336,39.336,0,0,0-2.041,4.082,24.493,24.493,0,0,0-1.185,3.621,16.319,16.319,0,0,0-.494,3.292,6.385,6.385,0,0,0,.3,2.4,1.172,1.172,0,0,0,1.152.922,2.933,2.933,0,0,0,1.909-.922,18.092,18.092,0,0,0,2.337-2.732c.889-1.185,1.942-2.633,3.127-4.312s2.568-3.555,4.148-5.695a28.558,28.558,0,0,1,2.732-3.16,32.575,32.575,0,0,1,2.8-2.568c.922-.724,1.778-1.35,2.6-1.909a17.356,17.356,0,0,1,2.107-1.218c-.164.23-.527.625-1.053,1.251s-1.152,1.382-1.81,2.3c-.691.922-1.383,1.942-2.14,3.094a34.4,34.4,0,0,0-2.041,3.489,31.035,31.035,0,0,0-1.744,4.082,19.073,19.073,0,0,0-.889,3.818,8.158,8.158,0,0,0,.165,3.028A2.587,2.587,0,0,0,525.321,180a3.593,3.593,0,0,0,2.568-.2,20.993,20.993,0,0,0,3.489-1.81,35.9,35.9,0,0,0,3.852-2.831c1.284-1.086,2.535-2.173,3.687-3.292.362-.329.691-.658,1.02-.988a13.351,13.351,0,0,0,.823,5.629,6.532,6.532,0,0,0,3.325,3.621,11.111,11.111,0,0,0,5.629,1.152,15.147,15.147,0,0,0,5.2-1.448,22.362,22.362,0,0,0,4.641-3.094,35.026,35.026,0,0,0,3.818-3.851,44.784,44.784,0,0,0,2.831-3.72c.79-1.152,1.349-2.041,1.679-2.633h0c1.185-1.448,2.4-2.93,3.654-4.378s2.5-2.9,3.72-4.312a19.807,19.807,0,0,1,1.415,3.358,17.715,17.715,0,0,1,.757,3.851,14.813,14.813,0,0,1-.164,3.818,9.784,9.784,0,0,1-1.218,3.325,7.069,7.069,0,0,1-3.16,2.93,3.733,3.733,0,0,1-3.094-.066,2.243,2.243,0,0,1-1.35-1.679,3.406,3.406,0,0,1,.3-1.909,4.539,4.539,0,0,0-3.325,1.053,6.4,6.4,0,0,0-2.14,2.93,4.521,4.521,0,0,0,.2,3.456c.527,1.152,1.778,2.041,3.72,2.633a8.6,8.6,0,0,0,5.793-.23,23.1,23.1,0,0,0,5.991-3.423,44.981,44.981,0,0,0,5.728-5.3c1.843-2.041,3.522-4.049,5.036-6.057a3.726,3.726,0,0,0,.889-1.942A.8.8,0,0,0,590.136,163.711Zm-39.666-6.123a14.322,14.322,0,0,1,3-3,7.96,7.96,0,0,1,3.094-1.448,2.964,2.964,0,0,1,2.469.4,2.586,2.586,0,0,1,.922,1.383,2.7,2.7,0,0,1-.165,1.942,5.9,5.9,0,0,1-1.679,2.107,12.526,12.526,0,0,1-3.489,1.942,11.736,11.736,0,0,1-3.95.889c-1.053,0-1.843-.033-2.4-.066A14.766,14.766,0,0,1,550.47,157.588Z" transform="translate(-457.886 -123.88)"/></g></g><text class="b" transform="translate(1296 4228)"><tspan x="-40.632" y="0">Panama</tspan></text></g></svg>