<svg xmlns="http://www.w3.org/2000/svg" width="227.316" height="163.076" viewBox="0 0 227.316 163.076"><defs><style>.a{fill:none;}.b{fill:#dd4885;}.c{fill:#f5c929;}.d{fill:#d52644;}.e{fill:#80c342;}.f{fill:#349fcb;}.g{fill:#ed9633;}.h{fill:#8fc243;}.i{fill:#b05595;}.j{fill:#826aaf;}</style></defs><g transform="translate(57.304 0)"><path class="a" d="M1563.464,171.323a43.538,43.538,0,0,0-43.56,41.93,2.771,2.771,0,0,1,.554,1.664,43.005,43.005,0,1,0,78.668-24.043,2.773,2.773,0,0,1-.472-1.685A43.572,43.572,0,0,0,1563.464,171.323Zm36.629,30.281a38.965,38.965,0,0,1-34.546,52.217,2.779,2.779,0,0,1-2.084.94,39.653,39.653,0,0,1-27.636-11.142,2.784,2.784,0,0,1-.808-2.507A38.68,38.68,0,0,1,1531,193.9a38.751,38.751,0,0,1,16.076-14.017,38.3,38.3,0,0,1,15.353-3.621,1.9,1.9,0,0,1,1.036-.307A39.089,39.089,0,0,1,1600.093,201.6Z" transform="translate(-1506.661 -158.114)"/><path class="a" d="M1548.457,234.99a25.906,25.906,0,0,0,42.734,4.369,2.779,2.779,0,0,1,.518-1.857,25.2,25.2,0,0,0,2.351-25.5,2.784,2.784,0,0,1,.2-2.739,26.786,26.786,0,0,0-22.96-13.134,26.619,26.619,0,0,0-26.636,26.636,26.729,26.729,0,0,0,2.462,11.2A2.046,2.046,0,0,1,1548.457,234.99Z" transform="translate(-1514.499 -165.967)"/><path class="a" d="M1531.783,218.7a35.11,35.11,0,0,0,9.31,23.941,2.78,2.78,0,0,1,2.363.744,34.1,34.1,0,0,0,23.767,9.582,2.778,2.778,0,0,1,1.977.823,35.146,35.146,0,0,0-1.977-70.237,1.89,1.89,0,0,1-.991-.28,35.088,35.088,0,0,0-14.028,3.317A35.6,35.6,0,0,0,1531.783,218.7Zm35.441-29.279a29.441,29.441,0,0,1,25.294,14.534,2.788,2.788,0,0,1,2.5,1.592,30.779,30.779,0,0,1-2.872,31.155,2.774,2.774,0,0,1-1.789,1.109,30.017,30.017,0,0,1-49.6-4.95,2.05,2.05,0,0,1-.073-1.789,29.3,29.3,0,0,1,13.365-38.527A28.97,28.97,0,0,1,1567.224,189.419Z" transform="translate(-1510.421 -161.895)"/><path class="a" d="M1585.043,166.732a51.287,51.287,0,1,0,26.1,44.649A51.238,51.238,0,0,0,1585.043,166.732Zm15.155,17.484a48.694,48.694,0,0,1,6.337,40.873,48.947,48.947,0,0,1-17.251,25,48.581,48.581,0,0,1-77.953-38.7,2.775,2.775,0,0,1,.621-1.752,48,48,0,0,1,86.75-26.519A2.778,2.778,0,0,1,1600.2,184.216Z" transform="translate(-1503.111 -154.579)"/><path class="b" d="M1637.651,237.894a2.788,2.788,0,0,1-2.789-2.789,51.179,51.179,0,0,1-51.226,51.225,2.789,2.789,0,0,1,0,5.578,56.755,56.755,0,0,0,56.8-56.8A2.789,2.789,0,0,1,1637.651,237.894Z" transform="translate(-1526.834 -178.302)"/><path class="c" d="M1558.349,280.087a2.788,2.788,0,0,1,2.789-2.789,42.99,42.99,0,0,1-43.005-43.005,2.773,2.773,0,0,0-.554-1.664q-.032.829-.033,1.664a2.2,2.2,0,0,1-4.4,0c0-.586.013-1.169.034-1.752a2.775,2.775,0,0,0-.621,1.752,48.569,48.569,0,0,0,48.583,48.583A2.789,2.789,0,0,1,1558.349,280.087Z" transform="translate(-1504.334 -177.491)"/><path class="d" d="M1546.009,189.879a1.908,1.908,0,0,1,0,2.7q-.7.7-1.357,1.439a2.779,2.779,0,0,0,1.98-.817,34.1,34.1,0,0,1,23.581-10.031,2.779,2.779,0,0,0,2.2-1.145c-.735-.031-1.476-.042-2.219-.028a1.615,1.615,0,0,1-.061-3.229c.778-.015,1.552,0,2.323.027a2.788,2.788,0,0,0-2.345-1.2,39.654,39.654,0,0,0-27.42,11.663,2.778,2.778,0,0,0-.808,2.138q.694-.773,1.431-1.515A1.909,1.909,0,0,1,1546.009,189.879Z" transform="translate(-1513.615 -160.098)"/><path class="d" d="M1618.688,217.512a1.32,1.32,0,0,1-1.759-.628c-.344-.724-.722-1.426-1.125-2.11a2.782,2.782,0,0,0-.2,2.739,25.2,25.2,0,0,1-2.351,25.5,2.777,2.777,0,0,0-.518,1.857c.385-.461.758-.936,1.113-1.426a2.055,2.055,0,1,1,3.33,2.409q-.574.792-1.195,1.54a2.774,2.774,0,0,0,1.789-1.109,30.78,30.78,0,0,0,2.872-31.155,2.788,2.788,0,0,0-2.5-1.592c.422.72.817,1.459,1.178,2.221A1.32,1.32,0,0,1,1618.688,217.512Z" transform="translate(-1536.042 -171.474)"/><path class="e" d="M1595.14,254.993a2.056,2.056,0,0,0-2.87.461c-.354.491-.727.965-1.113,1.426a25.905,25.905,0,0,1-42.734-4.37,2.053,2.053,0,0,0-1.329-1.025c.214.463.441.922.682,1.372a1.321,1.321,0,1,1-2.328,1.248c-.254-.474-.493-.955-.72-1.441a2.05,2.05,0,0,0,.072,1.789,30.017,30.017,0,0,0,49.605,4.95q.619-.748,1.195-1.54A2.055,2.055,0,0,0,1595.14,254.993Z" transform="translate(-1514.465 -183.487)"/><path class="f" d="M1596.55,209.022c-.361-.761-.757-1.5-1.179-2.221a29.44,29.44,0,0,0-25.294-14.534,29.259,29.259,0,0,0-29.278,29.279,29.381,29.381,0,0,0,2.739,12.374c.227.487.465.968.72,1.441a1.321,1.321,0,1,0,2.328-1.248c-.241-.45-.468-.908-.682-1.372a26.655,26.655,0,0,1,12.191-34.99,26.346,26.346,0,0,1,11.983-2.841,26.787,26.787,0,0,1,22.96,13.134c.4.683.781,1.385,1.125,2.11a1.321,1.321,0,1,0,2.387-1.131Z" transform="translate(-1513.275 -164.743)"/><path class="c" d="M1621.032,209.877a38.681,38.681,0,0,0-36.228-30.542c-.771-.031-1.544-.041-2.323-.027a1.615,1.615,0,0,0,.061,3.229c.744-.014,1.484,0,2.219.028a35.108,35.108,0,0,1,23.513,10.346,35.6,35.6,0,0,1,8.265,37.146,35.091,35.091,0,0,1-7.573,12.264,1.906,1.906,0,0,1,2.315,2.251,38.3,38.3,0,0,0,8.3-13.416A38.758,38.758,0,0,0,1621.032,209.877Z" transform="translate(-1525.967 -160.639)"/><path class="g" d="M1593.792,247.715a1.911,1.911,0,0,0-2.7,0,35.146,35.146,0,0,1-51.063-48.267c.438-.49.889-.971,1.357-1.439a1.908,1.908,0,1,0-2.7-2.7q-.739.74-1.431,1.515a38.961,38.961,0,0,0,56.534,53.588,1.91,1.91,0,0,0,0-2.7Z" transform="translate(-1508.994 -165.529)"/><path class="h" d="M1622.63,194.847a2.778,2.778,0,0,0-1.5-1.106c.344.472.683.949,1.011,1.435a2.2,2.2,0,1,1-3.648,2.465c-.311-.46-.632-.91-.959-1.357a2.774,2.774,0,0,0,.472,1.685,43.124,43.124,0,0,1,5.607,36.18,43.234,43.234,0,0,1-41.27,30.869,2.789,2.789,0,1,0,0,5.577,48.152,48.152,0,0,0,29.37-9.879,48.477,48.477,0,0,0,19.213-38.7A48.343,48.343,0,0,0,1622.63,194.847Z" transform="translate(-1525.543 -165.209)"/><path class="f" d="M1601.207,186.041c-.328-.486-.667-.962-1.011-1.435a47.979,47.979,0,0,0-86.75,26.519c-.021.582-.033,1.167-.033,1.752a2.2,2.2,0,0,0,4.4,0q0-.833.033-1.664a43.592,43.592,0,0,1,78.75-24.065c.327.446.648.9.959,1.357a2.2,2.2,0,1,0,3.648-2.465Z" transform="translate(-1504.607 -156.074)"/><path class="i" d="M1557.331,286.33a51.221,51.221,0,0,1-51.225-51.225,2.789,2.789,0,0,1-5.578,0,56.8,56.8,0,0,0,56.8,56.8,2.789,2.789,0,0,0,0-5.578Z" transform="translate(-1500.528 -178.302)"/><path class="j" d="M1623.144,162.67a2.788,2.788,0,1,1-2.74,4.857,51.348,51.348,0,0,1,26.1,44.65,2.788,2.788,0,1,0,5.577,0A56.931,56.931,0,0,0,1623.144,162.67Z" transform="translate(-1538.472 -155.375)"/><path class="d" d="M1585.2,159.291a56.806,56.806,0,0,0-84.672,49.507,2.789,2.789,0,0,0,5.578,0,51.241,51.241,0,0,1,76.354-44.65,2.788,2.788,0,1,0,2.74-4.857Z" transform="translate(-1500.528 -151.996)"/></g><g transform="translate(0 139.531)"><g transform="translate(0 0.397)"><path d="M1388.722,344.86a2.46,2.46,0,0,1,.652,1.766V364.7a2.234,2.234,0,0,1-.6,1.655,2.152,2.152,0,0,1-1.592.6,2.11,2.11,0,0,1-1.559-.6,2.233,2.233,0,0,1-.6-1.655V353.469l-4.52,8.5a3.534,3.534,0,0,1-.971,1.209,2.232,2.232,0,0,1-2.5,0,3.421,3.421,0,0,1-.987-1.209l-4.52-8.338V364.7a2.251,2.251,0,0,1-.6,1.64,2.332,2.332,0,0,1-3.151.015,2.234,2.234,0,0,1-.6-1.655V346.626a2.456,2.456,0,0,1,.652-1.766,2.244,2.244,0,0,1,1.7-.684,2.508,2.508,0,0,1,2.323,1.623l6.46,12.253,6.429-12.253a2.575,2.575,0,0,1,2.292-1.623A2.246,2.246,0,0,1,1388.722,344.86Z" transform="translate(-1367.159 -344.144)"/><path d="M1418.683,366.312a2.32,2.32,0,0,1-.6-1.718V346.8a2.107,2.107,0,0,1,2.323-2.323h11.267q2.355,0,2.355,1.91,0,1.942-2.355,1.942h-8.752v5.251h8.115q2.355,0,2.355,1.942,0,1.908-2.355,1.909h-8.115v5.634h8.752q2.355,0,2.355,1.942,0,1.909-2.355,1.91H1420.4A2.322,2.322,0,0,1,1418.683,366.312Z" transform="translate(-1391.344 -344.288)"/><path d="M1470.887,364.643a2.156,2.156,0,0,1-.716,1.608,2.307,2.307,0,0,1-1.639.684,2.049,2.049,0,0,1-1.623-.8l-5.983-7.32-6.047,7.32a2.11,2.11,0,0,1-1.623.8,2.272,2.272,0,0,1-1.607-.684,2.156,2.156,0,0,1-.716-1.608,2.2,2.2,0,0,1,.573-1.463l6.524-7.766-6.3-7.543a2.217,2.217,0,0,1-.6-1.464,2.156,2.156,0,0,1,.716-1.608,2.271,2.271,0,0,1,1.607-.684,2.11,2.11,0,0,1,1.655.827l5.824,7.034,5.761-7.034a2.109,2.109,0,0,1,1.655-.827,2.273,2.273,0,0,1,1.607.684,2.154,2.154,0,0,1,.716,1.608,2.2,2.2,0,0,1-.573,1.464l-6.3,7.543,6.493,7.766A2.219,2.219,0,0,1,1470.887,364.643Z" transform="translate(-1406.949 -344.115)"/></g><g transform="translate(66.713)"><path d="M1494.4,366.845a.79.79,0,0,1-.179-.555V344.573a.65.65,0,0,1,.245-.506.845.845,0,0,1,.572-.212h7.478a8.17,8.17,0,0,1,5.519,1.7,6.051,6.051,0,0,1,1.959,4.833,6.127,6.127,0,0,1-1.976,4.865,8.071,8.071,0,0,1-5.5,1.731h-6.956v9.307a.845.845,0,0,1-.163.555.6.6,0,0,1-.49.2A.651.651,0,0,1,1494.4,366.845Zm8.082-11.168a6.717,6.717,0,0,0,4.556-1.339,4.989,4.989,0,0,0,1.518-3.951,4.939,4.939,0,0,0-1.518-3.936,6.774,6.774,0,0,0-4.556-1.323h-6.923v10.548Z" transform="translate(-1494.224 -343.594)"/><path d="M1533.778,366.649a.667.667,0,0,1-.245-.489V344.573a.651.651,0,0,1,.245-.506.846.846,0,0,1,.572-.212h12.573a.549.549,0,0,1,.425.18.676.676,0,0,1,.163.474.631.631,0,0,1-.163.441.549.549,0,0,1-.425.179H1534.9v9.438h11.365a.574.574,0,0,1,.424.163.619.619,0,0,1,.164.457.678.678,0,0,1-.164.474.546.546,0,0,1-.424.179H1534.9V365.6h12.018a.577.577,0,0,1,.425.163.62.62,0,0,1,.163.458.677.677,0,0,1-.163.474.549.549,0,0,1-.425.179h-12.573A.809.809,0,0,1,1533.778,366.649Z" transform="translate(-1512.895 -343.594)"/><path d="M1586.309,366.453a.563.563,0,0,1-.179.408.6.6,0,0,1-.441.18.668.668,0,0,1-.555-.327l-4.441-7.217a5.825,5.825,0,0,0-2.074-2.221,6.44,6.44,0,0,0-3.021-.589h-4.9v9.6a.807.807,0,0,1-.179.539.591.591,0,0,1-.474.213.652.652,0,0,1-.506-.2.792.792,0,0,1-.179-.555V344.573a.65.65,0,0,1,.244-.506.846.846,0,0,1,.572-.212h8.066a8.375,8.375,0,0,1,5.5,1.617,5.827,5.827,0,0,1,1.943,4.751,5.738,5.738,0,0,1-1.714,4.409,7.656,7.656,0,0,1-4.817,1.829,3.749,3.749,0,0,1,1.388.882,9.005,9.005,0,0,1,1.291,1.665l4.376,7.086A.812.812,0,0,1,1586.309,366.453Zm-8.034-11.071q5.977,0,5.976-5.193a4.733,4.733,0,0,0-1.47-3.8,6.811,6.811,0,0,0-4.506-1.257h-7.544v10.254Z" transform="translate(-1529.911 -343.594)"/><path d="M1611.648,366.681a.8.8,0,0,1-.18-.539V344.3a.806.806,0,0,1,.18-.539.626.626,0,0,1,.506-.212.591.591,0,0,1,.474.212.809.809,0,0,1,.18.539v21.847a.807.807,0,0,1-.18.539.592.592,0,0,1-.474.213A.626.626,0,0,1,1611.648,366.681Z" transform="translate(-1549.911 -343.446)"/><path d="M1626.2,366.649a.667.667,0,0,1-.245-.489V344.573a.651.651,0,0,1,.245-.506.846.846,0,0,1,.572-.212h12.573a.548.548,0,0,1,.425.18.674.674,0,0,1,.163.474.629.629,0,0,1-.163.441.547.547,0,0,1-.425.179h-12.017v9.438H1638.7a.575.575,0,0,1,.424.163.619.619,0,0,1,.163.457.678.678,0,0,1-.163.474.547.547,0,0,1-.424.179h-11.365V365.6h12.017a.575.575,0,0,1,.425.163.617.617,0,0,1,.163.458.675.675,0,0,1-.163.474.547.547,0,0,1-.425.179h-12.573A.809.809,0,0,1,1626.2,366.649Z" transform="translate(-1556.794 -343.594)"/><path d="M1679.42,344.3v21.847a.807.807,0,0,1-.179.539.63.63,0,0,1-.506.213.584.584,0,0,1-.359-.1,1.511,1.511,0,0,1-.294-.327l-15.022-20.443v20.117a.809.809,0,0,1-.179.539.591.591,0,0,1-.474.213q-.621,0-.621-.751V344.3a.807.807,0,0,1,.179-.539.667.667,0,0,1,.539-.212.592.592,0,0,1,.343.081,2.1,2.1,0,0,1,.31.31l14.989,20.444V344.3a.807.807,0,0,1,.18-.539.59.59,0,0,1,.474-.212Q1679.419,343.544,1679.42,344.3Z" transform="translate(-1573.81 -343.446)"/><path d="M1710.312,365.482a9.208,9.208,0,0,1-3.56-4.082,16.5,16.5,0,0,1,0-12.557,9.221,9.221,0,0,1,3.56-4.065,10.291,10.291,0,0,1,5.486-1.42,11.447,11.447,0,0,1,4.2.783,9.348,9.348,0,0,1,3.347,2.155,1.071,1.071,0,0,1,.327.783.73.73,0,0,1-.131.441.39.39,0,0,1-.326.18.86.86,0,0,1-.555-.262,12.455,12.455,0,0,0-3.38-2.155,9.776,9.776,0,0,0-3.543-.588,7.959,7.959,0,0,0-6.45,2.743q-2.3,2.744-2.3,7.674,0,4.965,2.286,7.707a7.947,7.947,0,0,0,6.466,2.743,9.746,9.746,0,0,0,3.559-.587,12.6,12.6,0,0,0,3.364-2.155,1.1,1.1,0,0,1,.555-.262.392.392,0,0,1,.326.18.734.734,0,0,1,.131.44,1.068,1.068,0,0,1-.327.784,9.35,9.35,0,0,1-3.347,2.156,11.449,11.449,0,0,1-4.2.784A10.291,10.291,0,0,1,1710.312,365.482Z" transform="translate(-1594.579 -343.358)"/><path d="M1749.6,366.681a.806.806,0,0,1-.18-.539V344.3a.807.807,0,0,1,.18-.539.627.627,0,0,1,.506-.212.59.59,0,0,1,.473.212.807.807,0,0,1,.18.539v21.847a.806.806,0,0,1-.18.539.59.59,0,0,1-.473.213A.627.627,0,0,1,1749.6,366.681Z" transform="translate(-1615.435 -343.446)"/><path d="M1781.131,366.309a.5.5,0,0,1-.18.408.674.674,0,0,1-.441.147.694.694,0,0,1-.686-.458l-2.645-6.074h-13.03l-2.678,6.074a.672.672,0,0,1-.653.458.693.693,0,0,1-.555-.229.555.555,0,0,1-.065-.588L1769.864,344a.762.762,0,0,1,.784-.522.814.814,0,0,1,.474.146.87.87,0,0,1,.31.376l9.634,22.043A1.083,1.083,0,0,1,1781.131,366.309Zm-16.426-7.283h11.887l-5.943-13.585Z" transform="translate(-1620.528 -343.417)"/></g></g></svg>