<svg xmlns="http://www.w3.org/2000/svg" width="331.23" height="27.764" viewBox="0 0 331.23 27.764"><defs><style>.a{fill:#303e3e;}</style></defs><path class="a" d="M155.42-320.567c-3.777-.928-7.344-1.8-7.344-5.648,0-3.24,2.771-5.253,7.231-5.253A11.362,11.362,0,0,1,161.8-329.4l.189.138.638-.927-.172-.131a12.35,12.35,0,0,0-7.181-2.267c-6.153,0-8.345,3.272-8.345,6.333,0,4.758,4.15,5.768,8.163,6.744,3.741.91,7.274,1.769,7.274,5.571,0,3.246-2.768,5.184-7.4,5.184-3.1,0-6.247-1.264-7.839-3.145l-.154-.182-.817.758.134.166c1.706,2.1,5.206,3.519,8.71,3.519,6.281,0,8.519-3.254,8.519-6.3C163.514-318.578,159.4-319.589,155.42-320.567Z" transform="translate(-146.15 333.991)"/><path class="a" d="M831.234-309.352l-7.988-22.774h-1.017l-7.954,22.705-7.784-22.705h-1.245l8.482,24.739h1.018l7.99-22.849,7.99,22.849h1.018l8.482-24.739h-1.21Z" transform="translate(-655.316 333.637)"/><path class="a" d="M1535.177-320.567c-3.776-.928-7.344-1.8-7.344-5.648,0-3.24,2.77-5.253,7.231-5.253a11.363,11.363,0,0,1,6.491,2.072l.189.138.637-.927-.172-.131a12.35,12.35,0,0,0-7.18-2.267c-6.153,0-8.345,3.272-8.345,6.333,0,4.758,4.15,5.768,8.163,6.744,3.741.91,7.274,1.769,7.274,5.571,0,3.246-2.768,5.184-7.4,5.184-3.1,0-6.247-1.264-7.839-3.145l-.154-.182-.817.757.134.166c1.706,2.1,5.206,3.519,8.711,3.519,6.281,0,8.519-3.254,8.519-6.3C1543.27-318.578,1539.156-319.589,1535.177-320.567Z" transform="translate(-1212.04 333.991)"/><g transform="translate(33.635 1.512)"><path class="a" d="M295.16-332.125h-1.15v24.739h1.15v-12h12.349V-320.5H295.16Z" transform="translate(-294.01 332.125)"/><rect class="a" width="1.15" height="24.739" transform="translate(18.386 0)"/></g><g transform="translate(242.826 1.512)"><path class="a" d="M1252.332-323.918c0-5.139-3.651-8.207-9.768-8.207h-2.412v1.115h2.482c5.513,0,8.548,2.519,8.548,7.092s-3.036,7.092-8.548,7.092h-2.482v1.114h2.412a15.317,15.317,0,0,0,2.745-.219l6.158,8.545h1.43l-6.382-8.836A7.492,7.492,0,0,0,1252.332-323.918Z" transform="translate(-1234.115 332.125)"/><rect class="a" width="1.15" height="24.739" transform="translate(0 0)"/></g><path class="a" d="M664.573-332.125l-16.119,16.561v-16.561H647.3v24.739h1.15v-6.587l5.8-5.968.008.008,11.883-12.191Z" transform="translate(-533.302 333.637)"/><path class="a" d="M686.073-272.084l9.173,10.366.068.077h1.544L686.9-272.91Z" transform="translate(-563.252 287.892)"/><g transform="translate(277.887 1.512)"><path class="a" d="M1385.008-332.125l-16.119,16.561v-16.561h-1.15v24.739h1.15v-6.587l5.8-5.968.007.008,11.883-12.191Z" transform="translate(-1367.74 332.125)"/><path class="a" d="M1406.508-272.084l9.173,10.366.068.077h1.545l-9.96-11.268Z" transform="translate(-1397.689 286.38)"/></g><path class="a" d="M1042.958-332.583a12.3,12.3,0,0,0-12.681,12.473,12.3,12.3,0,0,0,12.681,12.474h.228v-1.115h-.228a11.2,11.2,0,0,1-11.532-11.359,11.2,11.2,0,0,1,11.532-11.359,11.2,11.2,0,0,1,11.532,11.359v.228h1.149v-.228A12.3,12.3,0,0,0,1042.958-332.583Z" transform="translate(-829.156 333.991)"/><g transform="translate(69.39 0)"><path class="a" d="M526.076-293.956a.2.2,0,0,0-.007.043.2.2,0,0,0,.026.107.2.2,0,0,0,.121.094.2.2,0,0,0,.152-.019l3.678-2.1-.2-.349-3.677,2.1A.2.2,0,0,0,526.076-293.956Z" transform="translate(-509.035 305.865)"/><path class="a" d="M482.346-303.529a1.391,1.391,0,0,0-.644.429,1.385,1.385,0,0,0-.325,1.018,1.383,1.383,0,0,0,.49.95,1.386,1.386,0,0,0,1.018.325,1.406,1.406,0,0,0,.95-.49,1.386,1.386,0,0,0,.325-1.018,1.385,1.385,0,0,0-.49-.95A1.391,1.391,0,0,0,482.346-303.529Zm1.473,1.242a1.048,1.048,0,0,1-.246.769,1.052,1.052,0,0,1-.486.325,1.066,1.066,0,0,1-.231.045,1.049,1.049,0,0,1-.769-.245,1.052,1.052,0,0,1-.37-.718,1.052,1.052,0,0,1,.246-.769,1.054,1.054,0,0,1,.488-.324,1.051,1.051,0,0,1,1,.2A1.05,1.05,0,0,1,483.819-302.287Z" transform="translate(-474.506 311.597)"/><path class="a" d="M541.834-303.094a1.4,1.4,0,0,0-.049.309,1.386,1.386,0,0,0,.182.752,1.4,1.4,0,0,0,1.9.523,1.388,1.388,0,0,0,.656-.843,1.409,1.409,0,0,0-.133-1.061,1.387,1.387,0,0,0-.843-.656,1.384,1.384,0,0,0-1.06.133h0A1.387,1.387,0,0,0,541.834-303.094Zm1.626-.647h0a1.053,1.053,0,0,1,.637.5,1.056,1.056,0,0,1,.137.57,1.065,1.065,0,0,1-.037.232,1.048,1.048,0,0,1-.5.638,1.049,1.049,0,0,1-.8.1,1.049,1.049,0,0,1-.637-.5,1.044,1.044,0,0,1-.1-.8,1.048,1.048,0,0,1,.5-.637A1.048,1.048,0,0,1,543.46-303.741Z" transform="translate(-521.175 312.003)"/><path class="a" d="M498.682-295.267a3.989,3.989,0,0,0-3.985,3.985,3.989,3.989,0,0,0,3.985,3.985,3.99,3.99,0,0,0,3.985-3.985A3.989,3.989,0,0,0,498.682-295.267Zm0,7.4a3.417,3.417,0,0,1-3.414-3.414,3.418,3.418,0,0,1,3.414-3.414,3.417,3.417,0,0,1,3.414,3.414A3.417,3.417,0,0,1,498.682-287.869Z" transform="translate(-484.8 305.164)"/><path class="a" d="M478.881-325.111a.258.258,0,0,0-.184-.077l-2.324.005-.01-.218a11.2,11.2,0,0,0-.266-1.99l-.048-.212,2.237-.608a.259.259,0,0,0,.157-.122.263.263,0,0,0,.023-.2l-.067-.236c-.051-.185-.115-.414-.2-.65l-.375-.957c-.038-.1-.078-.2-.131-.311l-.622-1.2-.74-1.136c-.056-.079-.123-.161-.186-.239l-.667-.824c-.144-.165-.3-.323-.44-.463l-.021-.021-.163-.166a.256.256,0,0,0-.183-.077.259.259,0,0,0-.183.076l-1.637,1.646-.161-.148a11.292,11.292,0,0,0-1.6-1.217l-.185-.116,1.153-2.016a.26.26,0,0,0,.025-.2.257.257,0,0,0-.125-.156l-.808-.436c-.193-.091-.4-.179-.585-.256l-.666-.28c-.069-.025-.149-.051-.231-.077l-.016-.005-1.066-.332-.966-.209c-.12-.025-.228-.048-.355-.07l-.744-.088c-.193-.022-.394-.045-.616-.061l-.876-.018-.05.007a.217.217,0,0,0-.043.011.228.228,0,0,0-.044.02l-.018.01-.066.068a.251.251,0,0,0-.044.143l.015,4.8h.514l-.014-4.534.6.011c.211.017.414.04.593.06l.294.033.423.052c.125.022.237.046.352.071l.915.2,1.038.324.218.071.659.278c.2.084.386.162.548.239l.565.3-1.15,2.01a.256.256,0,0,0-.025.2.257.257,0,0,0,.121.156,10.7,10.7,0,0,1,2.24,1.708.268.268,0,0,0,.364,0l1.635-1.645.161.166c.089.092.176.182.252.27l.662.818c.058.071.116.142.159.2l.715,1.1.61,1.179c.042.089.075.173.11.265l.375.953c.04.113.077.232.118.377l.064.222-2.235.607a.256.256,0,0,0-.156.12.255.255,0,0,0-.025.195,10.7,10.7,0,0,1,.374,2.794.256.256,0,0,0,.076.181.242.242,0,0,0,.173.075l2.325-.006-.013.6c-.018.248-.047.493-.073.709l-.069.594c-.016.1-.034.179-.051.262l-.215,1.005-.395,1.252-.272.646c-.082.194-.167.394-.249.568l-.3.565-2.01-1.15a.254.254,0,0,0-.194-.025.258.258,0,0,0-.157.121,10.694,10.694,0,0,1-1.707,2.242.261.261,0,0,0-.074.182.254.254,0,0,0,.075.18l1.643,1.634-.164.162c-.106.1-.194.185-.268.251l-.818.661c-.078.063-.145.117-.213.163l-1.088.71-1.186.613c-.086.043-.171.076-.254.108l-.957.376c-.115.04-.23.076-.376.118l-.221.064-.607-2.236a.261.261,0,0,0-.122-.157.255.255,0,0,0-.194-.023,10.722,10.722,0,0,1-2.792.374.259.259,0,0,0-.182.075.254.254,0,0,0-.075.182l.006,2.316-.6-.013c-.236-.017-.464-.044-.666-.068l-.631-.073c-.079-.014-.144-.028-.22-.044l-1.052-.224-1.032-.324-.224-.072-.609-.257c-.207-.087-.422-.177-.6-.26l-.565-.307,1.15-2.01a.255.255,0,0,0,.026-.2.256.256,0,0,0-.121-.156,10.713,10.713,0,0,1-2.242-1.707.246.246,0,0,0-.183-.075.253.253,0,0,0-.181.076l-1.634,1.643-.161-.166c-.11-.112-.187-.2-.251-.269l-.56-.687c-.036-.047-.069-.089-.1-.13l-.015-.019c-.057-.071-.107-.134-.144-.186l-.714-1.094-.611-1.181c-.03-.062-.054-.121-.077-.179l-.032-.079c-.02-.05-.039-.1-.055-.135l-.321-.825c-.049-.138-.088-.268-.119-.377l-.064-.222,2.237-.608a.255.255,0,0,0,.156-.12.258.258,0,0,0,.025-.2,10.677,10.677,0,0,1-.376-2.79.263.263,0,0,0-.076-.184.254.254,0,0,0-.18-.074l-2.318.006.011-.6c.016-.2.037-.386.063-.6l.083-.7c.018-.1.037-.2.056-.292l.21-.975.3-.972c.033-.106.065-.209.093-.288l.335-.8c.065-.151.124-.29.179-.409l.307-.565,2.011,1.151a.257.257,0,0,0,.2.024.26.26,0,0,0,.156-.121,10.6,10.6,0,0,1,1.706-2.241.257.257,0,0,0,.075-.183.26.26,0,0,0-.076-.181l-1.643-1.633.164-.162c.107-.106.193-.186.269-.253l.689-.558c.048-.036.09-.069.136-.106l.019-.015c.071-.057.132-.106.185-.143l1.091-.712,1.179-.61c.076-.036.146-.064.216-.092l.03-.012.148-.061.822-.323c.13-.046.258-.084.378-.118l.222-.063.6,2.219.487-.172-.66-2.431a.256.256,0,0,0-.122-.157.254.254,0,0,0-.2-.023l-.263.073c-.2.055-.406.111-.625.188l-.838.329c-.039.017-.086.035-.135.055-.093.037-.188.075-.293.124l-1.22.633-1.113.726c-.074.052-.149.111-.225.173l-.04.032c-.031.025-.063.051-.1.08l-.7.568c-.158.138-.313.294-.45.431l-.023.023-.172.17a.259.259,0,0,0-.078.184.256.256,0,0,0,.075.182l1.646,1.635-.148.161a11.23,11.23,0,0,0-1.216,1.6l-.116.185-2.015-1.153a.259.259,0,0,0-.2-.024.259.259,0,0,0-.156.125l-.438.808c-.078.169-.157.354-.236.538l-.3.714c-.037.1-.074.221-.111.34l-.3.974-.217,1c-.021.1-.041.2-.062.321l-.086.725c-.025.215-.048.408-.065.63l-.017.878a.263.263,0,0,0,.074.186.26.26,0,0,0,.184.076l2.323-.006.01.218a11.246,11.246,0,0,0,.268,1.989l.048.213-2.239.609a.26.26,0,0,0-.158.123.26.26,0,0,0-.022.2l.071.252c.049.178.11.4.193.634l.327.841c.016.037.035.084.061.15.038.1.072.18.117.276l.634,1.222.726,1.113c.051.073.111.148.171.222l.029.036c.032.04.056.071.085.108l.57.7c.143.164.3.326.446.468l.175.177a.265.265,0,0,0,.186.079.268.268,0,0,0,.183-.077l1.634-1.644.161.147a11.264,11.264,0,0,0,1.6,1.216l.185.116-1.154,2.016a.258.258,0,0,0-.024.2.257.257,0,0,0,.124.157l.81.438c.207.1.436.192.638.278l.613.258c.071.025.153.052.236.078l.014,0,1.064.332,1.029.221c.1.022.187.039.3.058l.651.076c.209.025.447.052.7.07l.881.019a.25.25,0,0,0,.185-.073.26.26,0,0,0,.078-.185l-.006-2.323.218-.01a11.237,11.237,0,0,0,1.99-.266l.213-.048.608,2.236a.249.249,0,0,0,.121.157.256.256,0,0,0,.2.024l.242-.068c.209-.058.419-.117.645-.2l.944-.371c.111-.043.212-.083.317-.135l1.224-.635,1.107-.722c.088-.059.176-.13.262-.2l.815-.659c.158-.139.317-.3.457-.435l.188-.185a.261.261,0,0,0,.079-.184.255.255,0,0,0-.075-.183l-1.645-1.635.147-.161a11.266,11.266,0,0,0,1.216-1.6l.116-.185,2.016,1.154a.258.258,0,0,0,.2.024.256.256,0,0,0,.155-.125h0l.435-.807c.087-.183.173-.386.256-.581l.285-.677c.022-.064.047-.143.079-.242l.335-1.067.218-1.017c.02-.093.04-.187.06-.307l.072-.619c.025-.206.056-.462.075-.734l.019-.881A.256.256,0,0,0,478.881-325.111Z" transform="translate(-451.19 338.772)"/><rect class="a" width="0.514" height="1.649" transform="matrix(1, -0.003, 0.003, 1, 13.608, 8.535)"/><path class="a" d="M510.978-313.073h.514l-.011-3.479h-.514Z" transform="translate(-497.369 321.607)"/><path class="a" d="M510.978-240.193h.514l-.011-6.476h-.514Z" transform="translate(-497.369 267.621)"/><path class="a" d="M487.287-282.859a6.782,6.782,0,0,1-4.851-1.588,6.853,6.853,0,0,1-1.466-8.653l-.376-.152a7.274,7.274,0,0,0,1.583,9.111,7.15,7.15,0,0,0,5.106,1.684Z" transform="translate(-473.17 303.607)"/></g></svg>