<svg xmlns="http://www.w3.org/2000/svg" width="28.972" height="21.07" viewBox="0 0 28.972 21.07"><defs><style>.a{fill:#9d60eb;}</style></defs><g transform="translate(0 0)"><path class="a" d="M28.313,6H.658A.658.658,0,0,0,0,6.658V26.412a.658.658,0,0,0,.658.658H28.313a.658.658,0,0,0,.658-.658V6.658A.658.658,0,0,0,28.313,6Zm-.658,18.161L19.5,16l-.931.931,8.818,8.818H1.587L10.4,16.935,9.474,16,1.317,24.161V7.317H27.655Z" transform="translate(0 -6)"/></g><g transform="translate(1.207 1.207)"><path class="a" d="M27.216,8,15.279,18.852,3.342,8H2v.487L14.809,20.132a.711.711,0,0,0,.939,0L28.557,8.487V8Z" transform="translate(-2 -8)"/></g></svg>