<svg xmlns="http://www.w3.org/2000/svg" width="20.522" height="20.522" viewBox="0 0 20.522 20.522"><defs><style>.a{fill:#fff;}</style></defs><path class="a" d="M15.693,0H4.829A4.843,4.843,0,0,0,0,4.829V15.693a4.843,4.843,0,0,0,4.829,4.829H15.693a4.843,4.843,0,0,0,4.829-4.829V4.829A4.843,4.843,0,0,0,15.693,0Zm3.621,15.693a3.626,3.626,0,0,1-3.621,3.621H4.829a3.626,3.626,0,0,1-3.621-3.621V8.45H5.078a5.663,5.663,0,0,0-.552,2.414,5.734,5.734,0,1,0,11.468,0,5.663,5.663,0,0,0-.552-2.414h3.871Zm-4.527-4.829a4.527,4.527,0,1,1-4.527-4.527A4.532,4.532,0,0,1,14.788,10.864Zm-.118-3.621a5.656,5.656,0,0,0-8.817,0H1.207V4.829A3.626,3.626,0,0,1,4.829,1.207H15.693a3.626,3.626,0,0,1,3.621,3.621V7.243Zm2.779-3.957V4.853a.657.657,0,0,1-.654.655H15.143a.659.659,0,0,1-.657-.655V3.286a.657.657,0,0,1,.657-.655h1.651a.657.657,0,0,1,.654.655Z"/></svg>