<svg xmlns="http://www.w3.org/2000/svg" width="19.314" height="18.46" viewBox="0 0 19.314 18.46"><defs><style>.a{fill:#fff;}</style></defs><path class="a" d="M.739,6.852h4.15V19.314H.739V6.852Zm2.1-6A2.162,2.162,0,0,0,.5,3.005a2.14,2.14,0,0,0,2.289,2.15h.025a2.157,2.157,0,1,0,.025-4.3ZM15.049,6.563a4.09,4.09,0,0,0-3.735,2.063V6.852H7.177s.051,1.17,0,12.461h4.137V12.359a3.156,3.156,0,0,1,.138-1.018,2.268,2.268,0,0,1,2.127-1.509c1.494,0,2.1,1.144,2.1,2.816v6.665h4.138V12.171C19.814,8.348,17.777,6.563,15.049,6.563Z" transform="translate(-0.5 -0.854)"/></svg>