<svg xmlns="http://www.w3.org/2000/svg" width="20.522" height="20.522" viewBox="0 0 20.522 20.522"><defs><style>.a{fill:#fff;}</style></defs><path class="a" d="M19.555,12a9.777,9.777,0,0,0,.162-1.742A9.428,9.428,0,0,0,8.518.967,5.371,5.371,0,0,0,5.432,0,5.439,5.439,0,0,0,0,5.432,5.377,5.377,0,0,0,.967,8.519a9.767,9.767,0,0,0-.162,1.742A9.429,9.429,0,0,0,12,19.555a5.371,5.371,0,0,0,3.085.967,5.439,5.439,0,0,0,5.432-5.432A5.377,5.377,0,0,0,19.555,12Zm-4.465,7.312a4.193,4.193,0,0,1-2.575-.88l-.22-.169-.272.057a8.751,8.751,0,0,1-1.764.187,8.257,8.257,0,0,1-8.248-8.248A8.668,8.668,0,0,1,2.2,8.5l.056-.272-.169-.22A4.221,4.221,0,0,1,8.007,2.087l.22.169L8.5,2.2a8.818,8.818,0,0,1,1.762-.187,8.257,8.257,0,0,1,8.248,8.248,8.668,8.668,0,0,1-.188,1.764l-.056.272.169.22a4.187,4.187,0,0,1,.88,2.574,4.23,4.23,0,0,1-4.225,4.225Zm.264-6.954c0,2.553-2.465,3.735-4.829,3.735-2.83,0-5.194-1.258-5.194-2.8A1.212,1.212,0,0,1,6.6,11.971c1.346,0,1.472,1.936,3.8,1.936,1.106,0,1.823-.489,1.823-1.131,0-.805-.692-.931-1.811-1.207l-1.836-.453c-1.835-.441-3.245-1.2-3.245-3.308,0-2.552,2.528-3.5,4.7-3.5,2.377,0,4.778.943,4.778,2.389A1.3,1.3,0,0,1,13.5,8.073c-1.22,0-1.258-1.445-3.233-1.445-1.106,0-1.811.3-1.811.967,0,.73.717.893,1.674,1.12l1.306.3c1.787.4,3.912,1.155,3.912,3.343Z"/></svg>